<svg xmlns="http://www.w3.org/2000/svg" viewBox="0 0 800 600" role="img" aria-label="SaaS-платформа DataPilot">
  <defs>
    <linearGradient id="bg" x1="0" y1="0" x2="1" y2="1">
      <stop offset="0" stop-color="#2b2166"/>
      <stop offset="1" stop-color="#0f0a2e"/>
    </linearGradient>
    <linearGradient id="bar1" x1="0" y1="0" x2="0" y2="1">
      <stop offset="0" stop-color="#8b5cf6"/>
      <stop offset="1" stop-color="#6d3fe0"/>
    </linearGradient>
    <linearGradient id="bar2" x1="0" y1="0" x2="0" y2="1">
      <stop offset="0" stop-color="#6366f1"/>
      <stop offset="1" stop-color="#4f46e5"/>
    </linearGradient>
  </defs>
  <rect width="800" height="600" fill="url(#bg)"/>
  <rect x="60" y="40" width="680" height="520" rx="18" fill="#f6f5fd"/>
  <rect x="60" y="40" width="160" height="520" rx="18" fill="#2b2166"/>
  <rect x="80" y="64" width="120" height="26" rx="13" fill="rgba(255,255,255,0.15)"/>
  <rect x="84" y="112" width="112" height="14" rx="7" fill="rgba(255,255,255,0.5)"/>
  <rect x="84" y="144" width="112" height="14" rx="7" fill="rgba(255,255,255,0.28)"/>
  <rect x="84" y="176" width="112" height="14" rx="7" fill="rgba(255,255,255,0.28)"/>
  <rect x="84" y="208" width="112" height="14" rx="7" fill="rgba(255,255,255,0.28)"/>
  <rect x="84" y="240" width="112" height="14" rx="7" fill="rgba(255,255,255,0.28)"/>
  <rect x="250" y="112" width="230" height="16" rx="8" fill="#b8b3e0"/>
  <rect x="250" y="146" width="170" height="12" rx="6" fill="#d8d5f2"/>
  <rect x="250" y="180" width="140" height="26" rx="13" fill="#6366f1"/>
  <rect x="250" y="240" width="300" height="170" rx="12" fill="#ffffff"/>
  <rect x="270" y="260" width="80" height="130" rx="6" fill="url(#bar1)"/>
  <rect x="360" y="230" width="80" height="160" rx="6" fill="url(#bar2)"/>
  <rect x="450" y="250" width="80" height="140" rx="6" fill="#a5b4fc"/>
  <rect x="570" y="240" width="150" height="110" rx="12" fill="#ffffff"/>
  <rect x="590" y="262" width="110" height="12" rx="6" fill="#d8d5f2"/>
  <rect x="590" y="288" width="90" height="12" rx="6" fill="#e8e6fa"/>
  <circle cx="600" cy="330" r="18" fill="#4f46e5"/>
  <circle cx="648" cy="330" r="18" fill="#6366f1"/>
  <circle cx="696" cy="330" r="18" fill="#8b5cf6"/>
  <rect x="250" y="440" width="460" height="72" rx="12" fill="#2b2166"/>
  <rect x="270" y="462" width="150" height="12" rx="6" fill="rgba(255,255,255,0.5)"/>
  <rect x="270" y="486" width="200" height="10" rx="5" fill="rgba(255,255,255,0.3)"/>
  <rect x="600" y="460" width="90" height="32" rx="16" fill="#8b5cf6"/>
</svg>
